<?xml version="1.0" encoding="UTF-8" standalone="no"?>
<svg
   xmlns="http://www.w3.org/2000/svg"
   width="7.0974216mm"
   height="8.9817324mm"
   viewBox="0 0 106.46133 134.72598"
   version="1.1">
  <g
     style="fill:#ffffff"
     transform="translate(-55.280804,-67.041902)">
    <path
       d="m 108.51116,67.041902 c -29.39822,2.26e-4 -53.229314,22.591573 -53.230356,51.990118 -0.0019,51.35224 50.952656,82.73587 53.120766,82.73587 2.16811,0 53.09208,-31.38383 53.34056,-82.73587 -2.4e-4,-29.398452 -23.83252,-51.990226 -53.23097,-51.990118 z"
        />
    <path
       d="m 410.12109,279.04297 c -94.84058,7.3e-4 -171.72125,76.88297 -171.72461,171.72461 -0.006,165.66566 164.37658,274.91346 171.37106,274.91346 6.99447,0 171.27852,-109.24842 172.08012,-274.91346 -7.3e-4,-94.84134 -76.88523,-171.72496 -171.72657,-171.72461 z"
       transform="scale(0.26458333)"
       style="fill:#fb5a2d" />
    <circle
       id="path2647"
       cx="108.52689"
       cy="119.42942"
       r="29.185829"
       />
  </g>
</svg>
