<?xml version="1.0" encoding="UTF-8" standalone="no"?>
<svg
   xmlns="http://www.w3.org/2000/svg"
   width="332.31665mm"
   height="340.78333mm"
   viewBox="0 0 332.31666 340.78334"
   version="1.1">
  <defs>
    <filter
       id="blur-filter"
       x="-30%"
       y="-30%"
       width="160%"
       height="160%">
      <feGaussianBlur
         in="SourceAlpha"
         stdDeviation="5.2"
         id="feGaussianBlur3408" />
      <feOffset
         dx="2"
         dy="2"
         result="offsetblur"
         id="feOffset3410" />
      <feFlood
         flood-color="rgba(0,0,0,0.5)"
         id="feFlood3412" />
      <feComposite
         in2="offsetblur"
         operator="in"
         id="feComposite3414" />
      <feMerge
         id="feMerge3420">
        <feMergeNode
           id="feMergeNode3416" />
        <feMergeNode
           in="SourceGraphic"
           id="feMergeNode3418" />
      </feMerge>
    </filter>
  </defs>
  <style>
    .primary { fill: #fb5a2d }
    .icon { filter: url(#blur-filter) }
  </style>
  <g
     style="fill:#ffffff"
     transform="translate(-25.504902,-49.646061)">
    <rect
       style="fill:#e7e7e7"
       width="166.15833"
       height="170.39166"
       x="25.504902"
       y="49.646061" />
    <path
       d="m 108.51119,70.390535 c -26.553982,2.04e-4 -48.07945,21.526111 -48.080391,48.080385 -0.0017,46.38398 46.023051,76.97177 47.981401,76.97177 1.95835,0 47.95549,-30.58797 48.17993,-76.97177 -2.1e-4,-26.55419 -21.52675,-48.080483 -48.08094,-48.080385 z" />
    <path
       class="primary"
       d="m 410.12109,279.04297 c -94.84058,7.3e-4 -171.72125,76.88297 -171.72461,171.72461 -0.006,165.66566 164.37658,274.91346 171.37106,274.91346 6.99447,0 171.27852,-109.24842 172.08012,-274.91346 -7.3e-4,-94.84134 -76.88523,-171.72496 -171.72657,-171.72461 z"
       transform="scale(0.26458333)" />
    <path
       d="m -10.973209,166.03132 c -1.575718,0.005 -1.581967,0.9499 -2.049142,1.86206 l -5.589329,10.91318 c -0.09541,0.18628 -0.350732,0.39058 -0.350732,0.70152 v 14.31902 4.16305 2.47892 c 0,1.01056 0.813102,1.82366 1.823662,1.82366 h 2.90008 c 1.01056,0 1.824178,-0.8131 1.824178,-1.82366 v -1.91771 h 3.2039399 13.1392505 0.561205 v -0.56121 -18.48207 -0.53124 H 4.1028471 c -0.05502,-0.0179 -0.1129982,-0.03 -0.1741487,-0.03 h 0.561205 v -12.96232 z"
       style="fill:#00ff00" />
    <path
       style="fill:#916f7c"
       d="m -22.511032,178.94687 c -0.440501,0 -0.794784,0.3548 -0.794784,0.7953 v 1.36323 c 0,0.4405 0.354283,0.79478 0.794784,0.79478 h 0.842326 1.910994 3.233911 v -1.30948 h -2.438611 v -0.84853 c 0,-0.4405 -0.3548,-0.7953 -0.7953,-0.7953 z" />
    <path
       style="fill:#55ddff"
       d="m 4.4899034,170.24714 -12.8462429,0.0393 c -1.3090658,0.004 -1.3141061,0.78887 -1.7022235,1.54667 l -4.533056,8.85115 H 4.4899034 Z" />
    <rect
       y="49.646061"
       x="191.66322"
       height="170.39166"
       width="166.15833"
       style="fill:#2c2c2c" />
    <path
       d="m 274.66953,73.830118 c -25.09324,1.93e-4 -45.43459,20.341952 -45.43547,45.435472 -0.002,43.83237 43.4913,72.73752 45.34192,72.73752 1.85062,0 45.31744,-28.90531 45.52953,-72.73752 -1.9e-4,-25.09344 -20.34255,-45.435564 -45.43598,-45.435472 z"
       class="primary icon" />
    <path
       d="m 274.66935,102.74839 -18.49087,0.0563 c -1.88424,0.005 -1.89153,1.13569 -2.45016,2.22647 -2.24696,4.48324 -4.8628,9.45286 -7.08355,13.71414 -0.19574,-0.35897 -0.44405,-0.49622 -0.9708,-0.49622 h -3.29243 c -0.52675,0 -0.95041,0.42428 -0.95041,0.95102 v 1.63014 c 0,0.52678 -0.0515,0.95042 0.47521,0.95042 h 4.71865 v 22.20476 c 0,1.20842 0.97231,2.18074 2.18074,2.18074 h 3.46793 c 1.20843,0 2.18137,-0.97232 2.18137,-2.18074 v -2.2932 h 20.21432 v -21.36559 l -20.46151,-0.0908 c -1.32167,-0.0332 -2.12782,-0.10765 -1.74015,-1.11291 l 4.80455,-9.38048 c 0.46411,-0.90617 0.47016,-1.84474 2.03554,-1.84952 l 15.36157,-0.0469 z m 0.002,0 v 5.09746 l 15.3616,0.0469 c 1.56538,0.005 1.5714,0.94334 2.03551,1.84951 l 4.80395,9.38048 c 0.38767,1.00529 -0.41785,1.07979 -1.73952,1.11292 l -20.46154,0.0908 v 21.36559 h 20.21435 v 2.29319 c 0,1.20843 0.97293,2.18074 2.18137,2.18074 h 3.46792 c 1.20843,0 2.18074,-0.97231 2.18074,-2.18074 v -22.20476 h 4.71867 c 0.52678,0 0.47518,-0.42364 0.47518,-0.95041 v -1.63014 c 0,-0.52675 -0.42364,-0.95103 -0.95039,-0.95103 h -3.29244 c -0.52674,0 -0.77504,0.1372 -0.97078,0.49622 -2.22077,-4.26127 -4.8366,-9.23089 -7.08357,-13.71413 -0.55865,-1.09078 -0.5659,-2.22051 -2.45015,-2.22648 z" />
    <rect
       y="220.03772"
       x="25.504902"
       height="170.39166"
       width="166.15833"
       class="primary"
        />
    <path
       d="m 108.51123,244.22177 c -25.093239,2e-4 -45.434591,20.34195 -45.435464,45.43547 -0.0026,43.83237 43.491304,72.73768 45.341934,72.73768 1.85063,0 45.31744,-28.90547 45.52953,-72.73768 -1.9e-4,-25.09344 -20.34257,-45.43556 -45.436,-45.43547 z m 0,28.91813 v 5.09788 l -15.361838,0.047 c -1.565381,0.005 -1.57144,0.94333 -2.035545,1.8495 l -4.804357,9.3803 c -0.387668,1.00526 0.418279,1.07991 1.739953,1.11312 l 20.461787,0.0904 v 21.36562 H 88.296458 v 2.2934 c 0,1.20842 -0.972847,2.18074 -2.181278,2.18074 h -3.468 c -1.208431,0 -2.180749,-0.97232 -2.180749,-2.18074 v -22.20484 h -4.718579 c -0.526706,0 -0.4749,-0.42356 -0.4749,-0.95034 v -1.63039 c 0,-0.52674 0.423571,-0.95084 0.95033,-0.95084 h 3.292316 c 0.526733,0 0.775256,0.13712 0.970995,0.49609 2.220753,-4.26128 4.836318,-9.23065 7.083292,-13.71389 0.558615,-1.09078 0.566262,-2.22174 2.450492,-2.22674 z m 0.003,0 18.49136,0.0563 c 1.88425,0.006 1.89134,1.13544 2.44999,2.22622 2.24697,4.48324 4.86251,9.45314 7.08329,13.71441 0.19574,-0.35902 0.44426,-0.49609 0.97099,-0.49609 h 3.29232 c 0.52673,0 0.95033,0.42409 0.95033,0.95084 v 1.62988 c 0,0.52677 0.0519,0.95085 -0.47493,0.95085 h -4.71855 v 22.20432 c 0,1.20843 -0.97232,2.18075 -2.18075,2.18075 h -3.468 c -1.20846,0 -2.18128,-0.97232 -2.18128,-2.18075 v -2.29288 h -20.21477 v -21.36562 l 20.46179,-0.091 c 1.32167,-0.0331 2.12709,-0.1073 1.73942,-1.1126 l -4.80383,-9.38082 c -0.4641,-0.90617 -0.47016,-1.8445 -2.03554,-1.8495 l -15.36184,-0.047 z"
       style="stroke-width:0.26458332" />
    <circle
       id="path2647"
       cx="108.52689"
       cy="119.42942"
       r="29.185829" />
    <rect
       style="fill:#e7e7e7"
       width="166.15833"
       height="170.39166"
       x="191.66322"
       y="220.03772" />
    <path
       class="primary icon"
       d="m 274.66953,244.22178 c -25.09324,1.9e-4 -45.43459,20.34195 -45.43547,45.43547 -0.002,43.83237 43.4913,72.73752 45.34192,72.73752 1.85062,0 45.31744,-28.90531 45.52953,-72.73752 -1.9e-4,-25.09344 -20.34255,-45.43556 -45.43598,-45.43547 z" />
    <path
       d="m 274.66935,273.14005 -18.49087,0.0563 c -1.88424,0.005 -1.89153,1.13569 -2.45016,2.22647 -2.24696,4.48324 -4.8628,9.45286 -7.08355,13.71414 -0.19574,-0.35897 -0.44405,-0.49622 -0.9708,-0.49622 h -3.29243 c -0.52675,0 -0.95041,0.42428 -0.95041,0.95102 v 1.63014 c 0,0.52678 -0.0515,0.95042 0.47521,0.95042 h 4.71865 v 22.20476 c 0,1.20842 0.97231,2.18074 2.18074,2.18074 h 3.46793 c 1.20843,0 2.18137,-0.97232 2.18137,-2.18074 v -2.2932 h 20.21432 v -21.36559 l -20.46151,-0.0908 c -1.32167,-0.0332 -2.12782,-0.10765 -1.74015,-1.11291 l 4.80455,-9.38048 c 0.46411,-0.90617 0.47016,-1.84474 2.03554,-1.84952 l 15.36157,-0.0469 z m 0.002,0 v 5.09746 l 15.3616,0.0469 c 1.56538,0.005 1.5714,0.94334 2.03551,1.84951 l 4.80395,9.38048 c 0.38767,1.00529 -0.41785,1.07979 -1.73952,1.11292 l -20.46154,0.0908 v 21.36559 h 20.21435 v 2.29319 c 0,1.20843 0.97293,2.18074 2.18137,2.18074 h 3.46792 c 1.20843,0 2.18074,-0.97231 2.18074,-2.18074 v -22.20476 h 4.71867 c 0.52678,0 0.47518,-0.42364 0.47518,-0.95041 v -1.63014 c 0,-0.52675 -0.42364,-0.95103 -0.95039,-0.95103 h -3.29244 c -0.52674,0 -0.77504,0.1372 -0.97078,0.49622 -2.22077,-4.26127 -4.8366,-9.23089 -7.08357,-13.71413 -0.55865,-1.09078 -0.5659,-2.22051 -2.45015,-2.22648 z" />
  </g>
</svg>
